<?xml version="1.0" encoding="UTF-8" standalone="no"?><!-- Generator: Gravit.io --><svg xmlns="http://www.w3.org/2000/svg" xmlns:xlink="http://www.w3.org/1999/xlink" style="isolation:isolate" viewBox="0 0 12 12" width="12pt" height="12pt"><defs><clipPath id="_clipPath_Vv8HYtG4BNM1uLc28ZS6NOW3i71gjrMb"><rect width="12" height="12"/></clipPath></defs><g clip-path="url(#_clipPath_Vv8HYtG4BNM1uLc28ZS6NOW3i71gjrMb)"><path d=" M 2.743 12.031 C 2.145 12.031 1.546 11.792 1.127 11.372 L 0.648 10.893 C -0.249 9.994 -0.249 8.556 0.648 7.657 L 3.641 4.66 C 4.12 4.241 4.658 4.001 5.257 4.001 C 5.855 4.001 6.454 4.241 6.873 4.66 L 7.352 5.14 C 7.471 5.26 7.471 5.499 7.352 5.619 C 7.232 5.739 6.992 5.739 6.873 5.619 L 6.394 5.14 C 6.095 4.84 5.676 4.66 5.257 4.66 C 4.838 4.66 4.419 4.84 4.12 5.14 L 1.127 8.136 C 0.469 8.795 0.469 9.814 1.127 10.473 L 1.606 10.953 C 1.905 11.252 2.324 11.432 2.743 11.432 C 3.162 11.432 3.581 11.252 3.88 10.953 L 5.975 8.855 C 6.095 8.735 6.334 8.735 6.454 8.855 C 6.574 8.975 6.574 9.215 6.454 9.335 L 4.359 11.432 C 3.94 11.792 3.342 12.031 2.743 12.031 Z " fill="rgb(0,0,0)"/><path d=" M 6.693 8.076 C 6.095 8.076 5.496 7.836 5.077 7.417 C 4.958 7.297 4.958 7.057 5.077 6.938 C 5.197 6.818 5.436 6.818 5.556 6.938 C 5.855 7.237 6.274 7.417 6.693 7.417 C 7.112 7.417 7.531 7.237 7.83 6.938 L 10.823 3.941 C 11.481 3.282 11.481 2.263 10.823 1.604 L 10.344 1.125 C 9.686 0.466 8.668 0.466 8.01 1.125 L 5.975 3.282 C 5.855 3.402 5.616 3.402 5.496 3.282 C 5.376 3.162 5.376 2.923 5.496 2.803 L 7.591 0.705 C 8.489 -0.193 9.925 -0.193 10.823 0.705 L 11.302 1.185 C 12.199 2.084 12.199 3.522 11.302 4.421 L 8.309 7.417 C 7.83 7.836 7.292 8.076 6.693 8.076 Z " fill="rgb(0,0,0)"/></g></svg>