<?xml version="1.0" encoding="UTF-8" standalone="no"?><!-- Generator: Gravit.io --><svg xmlns="http://www.w3.org/2000/svg" xmlns:xlink="http://www.w3.org/1999/xlink" style="isolation:isolate" viewBox="0 0 228.122 185.485" width="228.122pt" height="185.485pt"><defs><clipPath id="_clipPath_1UtMVMtpKWCWuwiGu8d3IeSZ7h9IdeSe"><rect width="228.122" height="185.485"/></clipPath></defs><g clip-path="url(#_clipPath_1UtMVMtpKWCWuwiGu8d3IeSZ7h9IdeSe)"><linearGradient id="_lgradient_0" x1="-0.0000026198865148430173" y1="0.5000011124936165" x2="0.9999997753288028" y2="0.5000011124936165" gradientTransform="matrix(-228.681,1.416,1.143,184.626,228.027,-0.068)" gradientUnits="userSpaceOnUse"><stop offset="0%" stop-opacity="1" style="stop-color:rgb(224,45,69)"/><stop offset="10%" stop-opacity="1" style="stop-color:rgb(220,43,68)"/><stop offset="20%" stop-opacity="1" style="stop-color:rgb(216,41,66)"/><stop offset="30.000000000000004%" stop-opacity="1" style="stop-color:rgb(212,39,65)"/><stop offset="40%" stop-opacity="1" style="stop-color:rgb(208,37,64)"/><stop offset="50%" stop-opacity="1" style="stop-color:rgb(204,35,62)"/><stop offset="60%" stop-opacity="1" style="stop-color:rgb(200,32,61)"/><stop offset="70%" stop-opacity="1" style="stop-color:rgb(196,30,60)"/><stop offset="80%" stop-opacity="1" style="stop-color:rgb(192,28,59)"/><stop offset="89.99999999999999%" stop-opacity="1" style="stop-color:rgb(188,26,57)"/><stop offset="99.99999999999999%" stop-opacity="1" style="stop-color:rgb(184,24,56)"/></linearGradient><path d=" M 217.072 0 C 223.098 -0.037 228.058 4.862 228.095 10.887 L 228.095 10.887 L 228.119 14.721 C 228.34 50.468 215.592 79.935 191.251 99.937 L 191.251 99.937 C 166.86 119.982 131.747 130.43 86.865 131.025 L 86.865 131.025 L 104.885 148.823 C 109.172 153.057 109.216 160.029 104.981 164.316 L 104.981 164.316 L 87.274 182.243 C 83.041 186.528 76.069 186.572 71.782 182.338 L 71.782 182.338 L 3.244 114.642 C -1.044 110.407 -1.087 103.436 3.148 99.149 L 3.148 99.149 L 70.842 30.609 C 75.077 26.324 82.049 26.281 86.335 30.514 L 86.335 30.514 L 104.262 48.22 C 108.55 52.453 108.593 59.426 104.358 63.712 L 104.358 63.712 L 84.295 84.025 C 111.704 83.822 142.329 79.168 161.345 63.543 L 161.345 63.543 C 174.714 52.555 181.148 36.68 181.014 15.013 L 181.014 15.013 L 180.991 11.179 C 180.953 5.154 185.852 0.193 191.878 0.156 L 191.878 0.156 L 217.072 0 Z " fill="url(#_lgradient_0)"/></g></svg>